<?xml version="1.0" standalone="no"?>
<!DOCTYPE svg PUBLIC "-//W3C//DTD SVG 20010904//EN"
 "http://www.w3.org/TR/2001/REC-SVG-20010904/DTD/svg10.dtd">
<svg version="1.0" xmlns="http://www.w3.org/2000/svg"
 width="577.000000pt" height="433.000000pt" viewBox="0 0 577.000000 433.000000"
 preserveAspectRatio="xMidYMid meet">

<g transform="translate(0.000000,433.000000) scale(0.100000,-0.100000)"
fill="#000000" stroke="none">
<path d="M3035 3390 c-95 -10 -255 -45 -343 -75 -40 -14 -77 -25 -83 -25 -15
0 -298 -137 -341 -165 -21 -14 -57 -37 -80 -52 -47 -30 -118 -85 -158 -121
-24 -21 -23 -21 20 3 88 49 286 142 360 168 187 65 317 87 512 87 278 0 485
-59 697 -199 29 -20 61 -40 70 -46 28 -16 141 -109 141 -116 0 -3 18 -20 40
-38 40 -32 40 -32 70 -14 30 17 33 39 8 69 -6 8 4 22 29 44 24 20 33 34 25 37
-7 3 -19 17 -27 33 -13 25 -12 29 8 47 55 48 52 48 98 -12 24 -30 46 -55 49
-55 3 0 18 12 34 26 25 22 28 29 18 45 -11 17 -8 23 23 50 19 17 35 35 35 39
0 8 -13 15 -155 80 -175 80 -244 103 -440 150 -190 46 -415 61 -610 40z"/>
<path d="M2780 3071 c-73 -33 -131 -90 -170 -167 -80 -160 10 -373 185 -439
81 -31 142 -32 223 -3 78 27 153 97 191 177 37 79 37 183 0 262 -56 119 -160
189 -289 196 -66 3 -82 0 -140 -26z m343 -159 c104 -153 13 -373 -163 -397
-110 -15 -214 30 -263 115 l-19 31 53 -40 c59 -44 115 -58 199 -46 60 8 106
42 155 111 41 58 33 208 -14 258 -11 12 -21 25 -21 29 0 16 49 -26 73 -61z
m-325 12 c28 -19 29 -57 2 -84 -27 -27 -65 -26 -84 2 -44 63 19 126 82 82z"/>
<path d="M4280 3000 l-33 -27 19 -26 c26 -36 39 -39 69 -15 28 22 27 46 -4 77
-17 17 -20 17 -51 -9z"/>
<path d="M4246 2866 l-29 -24 24 -31 c29 -37 36 -37 72 -6 l28 25 -23 30 c-28
35 -35 36 -72 6z"/>
<path d="M4016 2849 c-32 -25 -32 -27 -2 -64 l24 -29 35 24 35 24 -25 33 c-30
39 -32 39 -67 12z"/>
<path d="M4384 2847 l-27 -24 23 -31 c28 -38 34 -39 69 -10 l27 23 -21 32
c-24 39 -35 40 -71 10z"/>
<path d="M1758 2844 c-14 -14 -14 -19 -1 -45 17 -35 23 -36 51 -6 20 21 20 23
2 45 -22 26 -30 27 -52 6z"/>
<path d="M1649 2814 c-1 -5 -1 -12 0 -16 0 -5 -4 -8 -10 -8 -5 0 -7 -4 -4 -10
7 -12 42 -13 48 -2 3 4 -4 16 -14 26 -11 11 -20 15 -20 10z"/>
<path d="M1743 2725 c-18 -11 -32 -22 -32 -25 0 -3 11 -18 24 -33 l25 -28 29
23 28 24 -21 30 -21 30 -32 -21z"/>
<path d="M4137 2736 c-16 -12 -16 -17 -5 -35 15 -25 17 -25 41 -7 15 12 16 18
7 35 -13 24 -19 25 -43 7z"/>
<path d="M4020 2732 c0 -5 -12 -14 -26 -20 l-25 -12 23 -30 c28 -35 38 -37 66
-7 l22 24 -21 26 c-20 26 -39 35 -39 19z"/>
<path d="M4225 2724 c-15 -11 -17 -18 -9 -31 15 -23 27 -26 49 -9 20 15 20 15
0 35 -18 18 -22 18 -40 5z"/>
<path d="M1870 2702 c-19 -16 -20 -20 -9 -46 12 -27 11 -30 -21 -56 l-35 -28
23 -31 c22 -31 29 -61 13 -61 -4 0 -21 -12 -36 -26 -28 -26 -29 -26 -44 -7 -9
10 -30 36 -47 57 l-31 37 -29 -24 c-25 -22 -27 -27 -15 -41 12 -15 10 -21 -15
-47 -21 -22 -26 -34 -19 -45 9 -14 96 -62 195 -108 99 -46 310 -111 410 -127
30 -5 78 -13 105 -19 28 -6 127 -13 220 -16 154 -6 184 -4 320 20 158 28 274
56 328 79 17 8 52 22 77 31 79 29 370 184 370 197 0 3 19 19 42 34 23 15 47
32 52 37 6 4 24 18 39 29 41 31 25 35 -20 5 -20 -14 -42 -26 -46 -26 -5 0 -21
-8 -35 -18 -24 -16 -115 -59 -207 -97 -263 -110 -581 -144 -833 -90 -174 38
-346 111 -464 196 -29 21 -69 49 -88 62 -19 13 -63 52 -98 86 -34 33 -66 61
-71 61 -5 0 -19 -8 -31 -18z"/>
<path d="M1543 2682 c4 -5 0 -15 -8 -22 -19 -16 -19 -30 1 -30 8 0 12 5 9 10
-3 6 1 10 10 10 20 0 16 31 -4 38 -8 3 -11 0 -8 -6z"/>
<path d="M1492 2565 c-7 -8 -9 -15 -3 -15 5 0 8 -11 6 -25 -3 -29 12 -32 41
-8 l21 16 -20 24 c-24 27 -27 27 -45 8z"/>
<path d="M787 1465 l-27 -26 0 -163 c0 -162 0 -163 26 -187 24 -23 33 -24 171
-27 125 -3 151 -1 179 14 18 10 35 27 38 38 8 28 7 295 0 324 -12 42 -50 52
-211 52 -145 0 -149 -1 -176 -25z m323 -185 l0 -140 -140 0 -140 0 0 133 c0
74 3 137 7 140 3 4 66 7 140 7 l133 0 0 -140z"/>
<path d="M1260 1274 l0 -215 33 3 32 3 3 71 3 71 52 7 c29 3 98 6 154 6 137 0
149 13 141 151 -3 63 -7 74 -31 95 -27 23 -33 24 -208 24 l-179 0 0 -216z
m350 76 l0 -70 -140 0 -140 0 0 70 0 70 140 0 140 0 0 -70z"/>
<path d="M1710 1455 l0 -34 88 -3 87 -3 3 -177 2 -178 30 0 30 0 2 178 3 177
88 3 87 3 0 34 0 35 -210 0 -210 0 0 -35z"/>
<path d="M2190 1274 l0 -215 33 3 32 3 3 213 2 212 -35 0 -35 0 0 -216z"/>
<path d="M2363 1478 c-12 -6 -27 -24 -32 -41 -14 -38 -14 -287 -1 -321 18 -48
53 -56 240 -56 l170 0 0 40 0 40 -175 0 -175 0 0 140 0 140 175 0 175 0 0 35
0 35 -177 -1 c-104 0 -187 -5 -200 -11z"/>
<path d="M3000 1274 l0 -215 33 3 32 3 5 159 5 159 39 -49 c22 -27 47 -56 55
-65 9 -9 27 -30 40 -47 l24 -32 44 47 c24 27 61 70 81 96 l37 48 3 -161 3
-161 37 3 37 3 3 213 2 212 -42 -1 c-42 0 -45 -3 -116 -90 -41 -49 -80 -89
-88 -89 -7 0 -22 12 -31 28 -10 15 -25 34 -34 42 -9 8 -33 36 -54 63 -33 42
-42 47 -76 47 l-39 0 0 -216z"/>
<path d="M3560 1275 l0 -215 191 0 190 0 -3 38 -3 37 -152 3 -153 3 0 49 0 50
125 0 125 0 0 35 0 34 -122 3 -123 3 -3 53 -3 52 155 0 156 0 0 35 0 35 -190
0 -190 0 0 -215z"/>
<path d="M4020 1275 l0 -215 170 0 c187 0 222 8 240 56 6 14 10 91 10 170 l0
146 -29 29 -29 29 -181 0 -181 0 0 -215z m348 3 l3 -138 -146 0 -145 0 0 133
c0 74 3 137 7 141 4 3 68 5 142 4 l136 -3 3 -137z"/>
<path d="M4514 1477 c-2 -7 -3 -102 -2 -212 l3 -200 35 0 35 0 3 213 2 212
-35 0 c-20 0 -38 -6 -41 -13z"/>
<path d="M4676 1465 l-26 -24 0 -191 0 -190 35 0 35 0 0 75 0 75 140 0 140 0
0 -75 0 -75 35 0 35 0 0 194 0 195 -29 20 c-26 19 -43 21 -184 21 -150 0 -155
-1 -181 -25z m322 -117 l3 -68 -141 0 -140 0 0 70 0 71 138 -3 137 -3 3 -67z"/>
</g>
</svg>
